<svg width="90" height="73" viewBox="0 0 90 73" fill="none" xmlns="http://www.w3.org/2000/svg">
<path d="M34.7938 0V16.5064C28.7629 17.2813 24.2784 19.5287 21.3402 23.2484C18.5567 26.9682 17.1649 31.4628 17.1649 36.7325H36.6495V73H0V39.5223C0 28.0531 3.1701 18.9087 9.51031 12.0892C15.8505 5.11464 24.2784 1.08492 34.7938 0ZM88.3763 0V16.5064C82.3454 17.2813 77.8608 19.5287 74.9227 23.2484C71.9845 26.9682 70.5155 31.4628 70.5155 36.7325H90V73H53.5825V39.5223C53.5825 28.0531 56.6753 18.9087 62.8608 12.0892C69.201 5.11464 77.7062 1.08492 88.3763 0Z" fill="#045073"/>
</svg>
